FILE "AUDIO\Track_02.wav" WAV
  TRACK 01 AUDIO
    INDEX 01 00:00:00
FILE "AUDIO\Track_02.wav" WAV
  TRACK 02 AUDIO
    INDEX 01 08:05:26
FILE "AUDIO\Track_03.wav" WAV
  TRACK 03 AUDIO
    INDEX 01 11:51:42
FILE "AUDIO\Track_04.wav" WAV
  TRACK 04 AUDIO
    INDEX 01 15:22:42
FILE "AUDIO\Track_05.wav" WAV
  TRACK 05 AUDIO
    INDEX 01 17:50:42
FILE "AUDIO\Track_06.wav" WAV
  TRACK 06 AUDIO
    INDEX 01 20:02:17
FILE "AUDIO\Track_07.wav" WAV
  TRACK 07 AUDIO
    INDEX 01 22:27:26
FILE "AUDIO\Track_08.wav" WAV
  TRACK 08 AUDIO
    INDEX 01 24:51:68
FILE "AUDIO\Track_09.wav" WAV
  TRACK 09 AUDIO
    INDEX 01 27:25:28
FILE "AUDIO\Track_10.wav" WAV
  TRACK 10 AUDIO
    INDEX 01 30:08:02
FILE "AUDIO\Track_11.wav" WAV
  TRACK 11 AUDIO
    INDEX 01 32:35:42
FILE "AUDIO\Track_12.wav" WAV
  TRACK 12 AUDIO
    INDEX 01 34:55:71
FILE "AUDIO\Track_13.wav" WAV
  TRACK 13 AUDIO
    INDEX 01 35:30:06
FILE "AUDIO\Track_14.wav" WAV
  TRACK 14 AUDIO
    INDEX 01 35:42:64
FILE "AUDIO\Track_15.wav" WAV
  TRACK 15 AUDIO
    INDEX 01 36:03:36
FILE "AUDIO\Track_16.wav" WAV
  TRACK 16 AUDIO
    INDEX 01 36:22:27
FILE "AUDIO\Track_17.wav" WAV
  TRACK 17 AUDIO
    INDEX 01 36:48:17
FILE "AUDIO\Track_18.wav" WAV
  TRACK 18 AUDIO
    INDEX 01 37:03:43
FILE "AUDIO\Track_19.wav" WAV
  TRACK 19 AUDIO
    INDEX 01 37:21:00
FILE "AUDIO\Track_20.wav" WAV
  TRACK 20 AUDIO
    INDEX 01 37:36:03
FILE "AUDIO\Track_21.wav" WAV
  TRACK 21 AUDIO
    INDEX 01 37:50:57
FILE "AUDIO\Track_22.wav" WAV
  TRACK 22 AUDIO
    INDEX 01 38:04:55
FILE "AUDIO\Track_23.wav" WAV
  TRACK 23 AUDIO
    INDEX 01 38:24:04
FILE "AUDIO\Track_24.wav" WAV
  TRACK 24 AUDIO
    INDEX 01 38:39:70
FILE "AUDIO\Track_25.wav" WAV
  TRACK 25 AUDIO
    INDEX 01 38:59:72
FILE "AUDIO\Track_26.wav" WAV
  TRACK 26 AUDIO
    INDEX 01 39:22:11
FILE "AUDIO\Track_27.wav" WAV
  TRACK 27 AUDIO
    INDEX 01 39:40:19
FILE "AUDIO\Track_28.wav" WAV
  TRACK 28 AUDIO
    INDEX 01 40:02:23
FILE "AUDIO\Track_29.wav" WAV
  TRACK 29 AUDIO
    INDEX 01 40:20:24
FILE "AUDIO\Track_30.wav" WAV
  TRACK 30 AUDIO
    INDEX 01 40:48:37
FILE "AUDIO\Track_31.wav" WAV
  TRACK 31 AUDIO
    INDEX 01 43:29:36
FILE "AUDIO\Track_32.wav" WAV
  TRACK 32 AUDIO
    INDEX 01 51:33:04
FILE "AUDIO\Track_33.wav" WAV
  TRACK 33 AUDIO
    INDEX 01 56:48:61
FILE "AUDIO\Track_34.wav" WAV
  TRACK 34 AUDIO
    INDEX 01 57:12:56
FILE "AUDIO\Track_35.wav" WAV
  TRACK 35 AUDIO
    INDEX 01 57:30:61
FILE "AUDIO\Track_36.wav" WAV
  TRACK 36 AUDIO
    INDEX 01 58:01:01
FILE "AUDIO\Track_37.wav" WAV
  TRACK 37 AUDIO
    INDEX 01 58:25:73
FILE "AUDIO\Track_38.wav" WAV
  TRACK 38 AUDIO
    INDEX 01 58:47:74
FILE "AUDIO\Track_39.wav" WAV
  TRACK 39 AUDIO
    INDEX 01 59:19:14
